<svg width="64" height="64" viewBox="0 0 64 64" fill="none" xmlns="http://www.w3.org/2000/svg">
<path d="M0 0H64V64H0V0Z" fill="#DDA74F"/>
<path d="M30.846 20.073C28.7864 20.5348 27.2114 22.0183 26.6229 24.0618C26.5075 24.4601 26.4902 24.6448 26.4902 25.528C26.4902 26.4112 26.5075 26.5959 26.6229 26.9942C27.1768 28.9107 28.6018 30.348 30.5056 30.9022C31.1575 31.0869 32.4787 31.1216 33.1941 30.9657C35.2191 30.5154 36.7883 29.0261 37.3768 26.9942C37.4922 26.5959 37.5095 26.4112 37.5095 25.528C37.5095 24.6448 37.4922 24.4601 37.3768 24.0618C36.8229 22.1453 35.3979 20.7137 33.4941 20.1538C32.9345 19.9922 31.4229 19.946 30.846 20.073Z" fill="#111111"/>
<path d="M28.4231 33.875C27.3385 34.0828 25.6019 34.839 24.4538 35.5952C22.0712 37.1711 20.5135 39.4166 20.0865 41.8873C20.0404 42.1759 20 42.7474 20 43.1976V44H32H44V43.1976C44 42.7474 43.9596 42.1759 43.9135 41.8873C43.4923 39.434 41.9519 37.2 39.5981 35.6299C38.5538 34.9314 36.7596 34.1406 35.7327 33.9212C35.0865 33.7885 34.1865 33.8173 33.3962 33.9963C32.4788 34.2041 31.4635 34.2098 30.7019 34.0136C30.3038 33.9154 29.9923 33.875 29.375 33.8635C28.9308 33.8577 28.5038 33.8635 28.4231 33.875Z" fill="#111111"/>
</svg>
