<svg width="24" height="24" viewBox="0 0 24 24" fill="none" xmlns="http://www.w3.org/2000/svg">
<path d="M11.6836 4.94212C5.57905 7.66212 0.516145 9.92616 0.431685 9.97857C0.347225 10.0257 0.215842 10.1777 0.136074 10.314C0.0281533 10.5079 0 10.6127 0 10.859C0 11.0267 0.0281533 11.2416 0.0656911 11.3359C0.225227 11.75 0.262765 11.7709 3.43002 13.1231L6.40019 14.3966L7.23541 17.9289C8.15039 21.8019 8.12224 21.7076 8.53985 21.9434C8.79323 22.0902 9.10291 22.0954 9.36099 21.9644C9.46422 21.912 10.2713 21.2883 11.1581 20.5756L12.7675 19.2811L15.8034 21.5818C17.4738 22.8448 18.9003 23.9035 18.9707 23.9402C19.163 24.0345 19.5619 24.0136 19.7824 23.9035C19.9983 23.7934 20.1859 23.5471 20.261 23.2694C20.2892 23.1698 21.1479 18.1805 22.1708 12.185C24.179 0.414028 24.118 0.838535 23.8881 0.461195C23.691 0.146744 23.4893 0.0314465 23.1139 0.0157223L22.7807 0L11.6836 4.94212ZM18.5812 4.37086C18.4639 4.50189 16.2257 6.90219 13.6075 9.71129C10.3229 13.2384 8.812 14.8945 8.74161 15.0465C8.67592 15.1827 8.629 15.2404 8.61492 15.1932C8.60085 15.1513 8.48823 14.6796 8.36154 14.1346C8.09409 13.013 8.00024 12.8034 7.65771 12.6147C7.53571 12.5466 6.58319 12.1273 5.54621 11.6818C4.15262 11.0896 3.67401 10.8643 3.7397 10.8381C3.8617 10.7752 18.7407 4.15075 18.7689 4.14551C18.783 4.14027 18.6985 4.24508 18.5812 4.37086ZM20.1015 12.6566C19.3132 17.2633 18.661 21.0472 18.6516 21.0577C18.6234 21.0944 11.1675 15.4395 11.1816 15.3924C11.191 15.3504 21.5092 4.25033 21.5232 4.26605C21.5279 4.27129 20.8851 8.0447 20.1015 12.6566ZM10.0507 17.2267C10.9423 17.9027 11.0173 17.9709 10.9423 18.039C10.8156 18.17 9.66129 19.0819 9.5956 19.1081C9.55806 19.1291 9.50645 18.9981 9.44075 18.6993C9.38445 18.4583 9.2343 17.8189 9.10761 17.2738C8.89176 16.3672 8.88238 16.2938 8.97622 16.3881C9.03253 16.4458 9.51583 16.8231 10.0507 17.2267Z" fill="#DDA74F"/>
</svg>
