<svg width="24" height="24" viewBox="0 0 24 24" fill="none" xmlns="http://www.w3.org/2000/svg">
<path d="M7.00791 0.044632C4.99998 0.152508 3.47057 0.696581 2.35871 1.68623C0.871523 3.01358 0.219414 4.55199 0.0786712 7.07537C-0.0479974 9.35954 -0.0151574 16.4419 0.130277 17.7223C0.327317 19.514 0.937203 20.9117 1.96932 21.953C2.80439 22.7925 3.61132 23.2662 4.79356 23.6086C6.06024 23.9745 6.99853 24.0214 12.7221 23.9932C17.3197 23.9745 17.6903 23.9604 18.6333 23.7681C21.4012 23.2099 23.2778 21.3198 23.8126 18.5572C24.0003 17.591 24.0096 17.0797 23.9956 11.5546L23.9768 6.25457L23.8689 5.66828C23.5874 4.13456 23.0338 3.0042 22.1143 2.06614C20.8148 0.738794 19.3651 0.180649 16.874 0.0399418C15.8653 -0.0163422 8.04941 -0.011652 7.00791 0.044632ZM17.2962 2.29128C18.6943 2.4273 19.6607 2.79783 20.3785 3.47792C20.9133 3.97978 21.2558 4.53792 21.4904 5.28837C21.6686 5.8512 21.7484 6.37182 21.8 7.33333C21.861 8.42617 21.861 15.6211 21.8 16.6951C21.6921 18.6416 21.3355 19.6031 20.4019 20.499C19.6607 21.2025 18.8069 21.5637 17.5073 21.7091C16.3439 21.8404 7.6694 21.8404 6.5763 21.7091C5.66616 21.6012 4.91553 21.376 4.36664 21.0477C4.05231 20.8648 3.43304 20.2926 3.20316 19.9783C2.83254 19.4765 2.54167 18.7167 2.40562 17.9099C2.27895 17.1501 2.23673 15.6304 2.23673 11.9767C2.23673 8.38396 2.27895 6.90652 2.40093 6.16076C2.60735 4.87562 3.09057 3.9704 3.91157 3.30907C4.34318 2.96199 4.65751 2.79314 5.23924 2.60084C5.85382 2.39915 6.54346 2.29597 7.64125 2.24438C8.88918 2.18809 16.6347 2.22561 17.2962 2.29128Z" fill="#DDA74F"/>
<path d="M18.0375 4.18156C17.3338 4.38324 16.9069 5.0821 17.0242 5.83723C17.0758 6.16555 17.1884 6.39069 17.423 6.62051C17.7091 6.91131 17.9156 6.99573 18.3894 7.01918C18.7788 7.03795 18.8163 7.03326 19.1025 6.89255C19.4262 6.73308 19.6279 6.5267 19.7968 6.18431C19.9376 5.88883 19.9423 5.31192 19.8015 5.00705C19.4919 4.34103 18.7366 3.98926 18.0375 4.18156Z" fill="#DDA74F"/>
<path d="M11.2256 5.86056C10.2827 5.9872 9.34906 6.34835 8.52337 6.9018C8.08237 7.19729 7.20977 8.06968 6.91421 8.51526C6.44975 9.2188 6.0979 10.0724 5.93839 10.8979C5.83987 11.3904 5.85394 12.7178 5.96185 13.2102C6.50136 15.7148 8.32163 17.5394 10.8315 18.0834C11.3758 18.2007 12.7081 18.2007 13.2523 18.0834C14.519 17.8067 15.4761 17.2908 16.3862 16.3856C17.3104 15.471 17.8499 14.4719 18.1267 13.1727C18.244 12.6193 18.244 11.381 18.1267 10.8276C17.5919 8.30889 15.7341 6.44216 13.2383 5.92622C12.7926 5.83242 11.6807 5.7949 11.2256 5.86056ZM13.0084 8.15411C14.4205 8.51526 15.5089 9.60341 15.8936 11.0386C15.9734 11.3294 15.9968 11.5499 15.9968 12.0001C15.9968 12.6755 15.8983 13.1117 15.6309 13.6746C14.777 15.4756 12.7128 16.3949 10.8691 15.7946C9.51795 15.3584 8.53744 14.3031 8.16213 12.8913C8.04953 12.4692 8.05422 11.5358 8.16682 11.0855C8.64534 9.22349 10.3436 7.94774 12.2108 8.04154C12.4501 8.05092 12.8066 8.10252 13.0084 8.15411Z" fill="#DDA74F"/>
</svg>
