<svg width="246" height="61" viewBox="0 0 246 61" fill="none" xmlns="http://www.w3.org/2000/svg">
<g filter="url(#filter0_d_132_680)">
<path d="M2.12711 2.38961C2.12711 2.58442 6.32178 8.16883 11.4062 14.7922C16.4907 21.3506 20.4947 27.1299 20.3676 27.5195C20.1769 27.974 15.9822 33.5584 11.0249 39.987L2 51.6753L6.89378 51.8701C9.62667 52 12.2325 51.9351 12.6138 51.7403C13.0587 51.6104 16.3 47.5844 19.9227 42.8442C25.2614 35.8961 26.596 34.4675 27.168 35.2468C27.5494 35.7662 30.5365 39.7273 33.8414 44.0779L39.8156 52H45.472H51.0649L43.2476 41.7403C38.9894 36.1558 34.6676 30.5065 33.7778 29.2727L32.0618 27L38.4809 18.5584C42.04 13.8831 46.2983 8.2987 48.0143 6.02597L51.192 2H45.5356H39.9427L33.3329 10.7013C29.6467 15.5065 26.4689 19.3377 26.2147 19.1429C25.9605 19.013 22.8462 15.0519 19.2871 10.4416L12.868 2H7.52934C4.54222 2 2.12711 2.19481 2.12711 2.38961ZM28.884 30.0519L26.596 33.1039L24.8165 31.026C21.7022 27.3896 21.6387 27.1299 24.1174 23.8831L26.4054 20.8961L28.8205 23.9481L31.172 27L28.884 30.0519Z" fill="#DDA74F"/>
</g>
<path d="M63.1408 8.29869C59.1368 9.7922 53.4803 15.7013 52.1456 19.7922C50.6839 24.2078 50.7474 31.4156 52.2728 34.9221C53.9888 38.7532 58.247 43.2338 62.0603 45.1818C65.9372 47.1299 72.6105 47.3896 77.3772 45.7662C80.8728 44.5325 87.3554 38.8182 86.3386 37.7792C86.0208 37.4545 84.3683 36.8052 82.7159 36.3506C79.9194 35.5714 79.6017 35.6364 78.267 36.8701C74.7079 40.3117 68.1617 40.7013 63.6492 37.7792C58.9461 34.7273 56.7216 27.7792 58.7554 22.3247C59.6452 19.8571 63.0136 16.3506 65.4923 15.2467C69.4963 13.4935 75.1528 14.4026 78.4577 17.3247C79.2839 18.1039 79.7288 17.8441 81.8897 15.6364C84.7497 12.6493 84.559 12.2597 79.5381 9.46752C75.3434 7.12986 67.7168 6.54544 63.1408 8.29869Z" fill="#DDA74F" fill-opacity="0.8"/>
<path d="M96.1888 10.7663L99.6208 14.3377H109.345H119.069V10.7663V7.19485H105.913H92.7568L96.1888 10.7663Z" fill="#DDA74F" fill-opacity="0.8"/>
<path d="M125.425 12.2596V17.4544L141.314 31.935C150.021 39.922 157.457 46.5453 157.838 46.6752C158.283 46.87 158.474 40.1817 158.474 27.0648V7.19469H154.978H151.483L151.355 18.6882L151.165 30.1817L138.899 18.8181C132.098 12.5843 126.315 7.3895 125.997 7.32457C125.679 7.19469 125.425 9.40248 125.425 12.2596Z" fill="#DDA74F" fill-opacity="0.8"/>
<path d="M164.702 27C164.702 37.9091 164.956 46.8052 165.211 46.8052C165.465 46.8052 167.054 45.3766 168.706 43.6883L171.693 40.5714V26.935V13.2987L168.643 10.2467C166.99 8.55842 165.401 7.19479 165.147 7.19479C164.893 7.19479 164.702 16.0909 164.702 27Z" fill="#DDA74F" fill-opacity="0.8"/>
<path d="M178.174 19.7272C178.174 33.7532 178.746 37.1298 181.987 41.0909C187.389 47.7792 198.13 48.8181 205.185 43.2986C207.6 41.4155 210.333 36.3506 210.905 32.6493L211.35 29.922H207.918H204.549L203.405 33.1688C200.609 41.2857 189.995 42.0649 186.309 34.4675C185.356 32.5194 185.165 30.3116 185.165 19.6623V7.19475H181.669H178.174V19.7272Z" fill="#DDA74F" fill-opacity="0.8"/>
<path d="M219.612 8.29868C211.476 12.3896 211.222 24.4675 219.167 29.0779C221.391 30.3766 222.662 30.5714 228.573 30.5714C232.386 30.5714 235.945 30.8312 236.581 31.2208C237.216 31.5454 238.106 32.7143 238.551 33.8182C239.25 35.6363 239.25 36.026 238.106 37.5844C237.407 38.5584 236.2 39.4026 235.437 39.5324C234.293 39.7273 234.102 40.1818 234.102 43.2987C234.102 46.8052 234.102 46.8052 236.009 46.8052C238.551 46.8052 241.157 45.3766 243.191 42.974C247.83 37.3247 246.559 29.0779 240.585 25.2467C238.551 23.948 237.216 23.7532 230.416 23.4935C222.98 23.2987 222.599 23.2337 221.391 21.6753C220.692 20.7662 220.12 19.5324 220.12 18.8831C220.12 17.1948 222.599 14.3376 223.997 14.3376C225.014 14.3376 225.204 13.8831 225.204 10.7662C225.204 7.32466 225.141 7.19479 223.488 7.19479C222.472 7.19479 220.756 7.71427 219.612 8.29868Z" fill="#DDA74F" fill-opacity="0.8"/>
<path d="M70.1318 27V30.5714H75.407H80.6821L83.6692 27.4546C85.3216 25.7662 86.6563 24.1429 86.6563 23.8831C86.6563 23.6234 82.9701 23.4286 78.3941 23.4286H70.1318V27Z" fill="#DDA74F" fill-opacity="0.8"/>
<path d="M93.0107 27V30.5714H106.04H119.069V27V23.4286H106.04H93.0107V27Z" fill="#DDA74F" fill-opacity="0.8"/>
<path d="M96.3156 42.7792C94.5361 44.4675 93.0107 46.026 93.0107 46.2857C93.0107 46.6104 98.8579 46.8052 106.04 46.8052H119.069V43.2337V39.6623H109.408L99.6841 39.7273L96.3156 42.7792Z" fill="#DDA74F" fill-opacity="0.8"/>
<defs>
<filter id="filter0_d_132_680" x="0.5" y="0.5" width="59.1924" height="60" filterUnits="userSpaceOnUse" color-interpolation-filters="sRGB">
<feFlood flood-opacity="0" result="BackgroundImageFix"/>
<feColorMatrix in="SourceAlpha" type="matrix" values="0 0 0 0 0 0 0 0 0 0 0 0 0 0 0 0 0 0 127 0" result="hardAlpha"/>
<feOffset dx="3.5" dy="3.5"/>
<feGaussianBlur stdDeviation="2.5"/>
<feComposite in2="hardAlpha" operator="out"/>
<feColorMatrix type="matrix" values="0 0 0 0 0 0 0 0 0 0 0 0 0 0 0 0 0 0 0.15 0"/>
<feBlend mode="normal" in2="BackgroundImageFix" result="effect1_dropShadow_132_680"/>
<feBlend mode="normal" in="SourceGraphic" in2="effect1_dropShadow_132_680" result="shape"/>
</filter>
</defs>
</svg>
