<svg width="24" height="24" viewBox="0 0 24 24" fill="none" xmlns="http://www.w3.org/2000/svg">
<path d="M2.73388 0.0275726C2.06599 0.112152 1.39366 0.446022 0.926135 0.926794C0.48533 1.3675 0.244891 1.7904 0.0801463 2.38691C0.00445257 2.65846 0 3.19265 0 12.0023V21.3284L0.102409 21.6845C0.271607 22.2632 0.480878 22.6149 0.93504 23.0645C1.38475 23.5186 1.7365 23.7278 2.31534 23.897L2.67154 23.9994H11.9997C22.4899 23.9994 21.5104 24.0305 22.2807 23.6566C22.5879 23.5097 22.7348 23.4029 23.0688 23.069C23.4072 22.7351 23.5096 22.5971 23.6565 22.2855C24.0305 21.5065 23.9994 22.4903 23.9994 12.0023V2.67627L23.897 2.32014C23.7278 1.74143 23.5185 1.38976 23.0643 0.935696C22.7304 0.601828 22.5968 0.499441 22.2851 0.348087C21.5059 -0.0258465 22.5122 0.00976562 12.1778 0.000864029C7.11966 -0.00358772 2.87191 0.00976562 2.73388 0.0275726ZM13.38 2.96562C16.194 3.3173 18.2288 4.73735 19.3954 7.17237C19.6358 7.67095 19.9831 8.6681 19.9342 8.71262C19.903 8.74378 18.5093 9.10881 18.4336 9.10881C18.4069 9.10881 18.3223 8.90404 18.2422 8.6503C18.073 8.11611 17.748 7.45727 17.4229 6.98095C17.1246 6.54469 16.479 5.89921 16.0604 5.62322C15.4816 5.23593 14.5777 4.85309 13.892 4.70174C12.7878 4.4569 11.2784 4.47471 10.2097 4.75071C7.16419 5.52528 5.63696 7.98256 5.6236 12.1136C5.61915 13.0974 5.67258 13.6583 5.83732 14.4952C6.34492 17.0371 7.64952 18.6708 9.71551 19.343C10.7975 19.6947 12.3114 19.7926 13.5581 19.5923C15.4682 19.2807 16.9465 18.1455 17.4318 16.6097C17.5654 16.1824 17.5966 15.4746 17.5031 15.0294C17.4185 14.6243 17.1424 14.059 16.8886 13.7652C16.7105 13.5604 16.2163 13.1598 16.1406 13.1598C16.1228 13.1598 16.0738 13.3423 16.0337 13.5604C15.8423 14.6154 15.348 15.5324 14.6757 16.0933C13.1841 17.3309 10.6906 17.2552 9.37266 15.9242C8.68252 15.2253 8.39755 14.2726 8.59792 13.3022C8.89179 11.8688 10.1697 10.934 12.0843 10.7514C12.6008 10.7025 13.6783 10.7247 14.1948 10.796C14.3373 10.8138 14.462 10.8138 14.4753 10.796C14.5065 10.7381 14.364 10.2262 14.2393 9.96797C14.0033 9.46494 13.4957 9.06429 12.9125 8.90849C12.5652 8.81946 11.7459 8.81946 11.3986 8.90849C11.0023 9.01533 10.6283 9.23345 10.3255 9.54061C10.0851 9.7899 10.045 9.81216 9.96931 9.75874C9.92478 9.72758 9.63091 9.52726 9.31478 9.31358C8.66025 8.86397 8.67361 8.93075 9.14113 8.43217C9.65763 7.88462 10.2765 7.51514 10.9979 7.32372C11.55 7.17682 12.5117 7.15901 13.0995 7.27921C14.4486 7.55966 15.3703 8.34314 15.8333 9.60293C15.9892 10.0258 16.1183 10.5912 16.1628 11.0274L16.194 11.3257L16.5636 11.5082C17.0489 11.7486 17.552 12.127 17.9706 12.5677C19.244 13.9076 19.5557 15.8797 18.7676 17.6648C18.2734 18.7955 17.1602 19.9262 15.9358 20.5405C14.0434 21.4887 11.2828 21.6133 9.06544 20.8521C8.04135 20.5004 7.21317 19.9885 6.45623 19.2362C5.38316 18.1589 4.63958 16.6988 4.25666 14.8914C3.86929 13.0663 3.91381 10.7425 4.36797 8.88623C5.17389 5.61432 7.27996 3.55768 10.3611 3.03684C11.2962 2.87659 12.4405 2.84988 13.38 2.96562Z" fill="#DDA74F"/>
<path d="M12.0222 12.4031C11.5547 12.4565 11.1183 12.599 10.8022 12.8037C10.3614 13.0886 10.1744 13.4181 10.1699 13.8988C10.1655 14.6066 10.6909 15.1141 11.6126 15.2833C12.4897 15.4391 13.3135 15.2031 13.8255 14.6467C14.1728 14.2683 14.48 13.4403 14.5023 12.8126L14.5157 12.5144L14.1817 12.461C13.7276 12.3897 12.4586 12.3541 12.0222 12.4031Z" fill="#DDA74F"/>
</svg>
