<svg width="24" height="24" viewBox="0 0 24 24" fill="none" xmlns="http://www.w3.org/2000/svg">
<path d="M5.34584 0.0337677C2.80231 0.442284 0.798452 2.24538 0.183686 4.67769C-0.00872187 5.43838 -0.00872187 5.54638 0.00535674 12.2376C0.0241282 18.2432 0.0288211 18.7175 0.1086 19.0462C0.71398 21.5912 2.51604 23.3802 5.01734 23.9155C5.39277 23.9953 5.81044 24 12.0097 24C18.209 24 18.6267 23.9953 19.0021 23.9155C21.5175 23.3755 23.3758 21.516 23.9155 18.9992C23.9953 18.6236 24 18.2057 24 12.0028C24 5.79994 23.9953 5.38203 23.9155 5.00639C23.4369 2.7619 21.8835 1.01045 19.753 0.296721C18.8425 -0.00849342 19.3588 0.0102901 12.1505 0.000898361C8.52291 -0.00379753 5.48663 0.0102901 5.34584 0.0337677ZM18.9786 1.73357C19.8233 1.99652 20.3912 2.32521 20.9872 2.88868C21.5785 3.45684 22.0008 4.15648 22.273 5.02986L22.4044 5.45247V12.0028V18.5531L22.273 18.9757C22.0102 19.8209 21.6817 20.3891 21.1186 20.9854C20.5507 21.5771 19.8515 21.9997 18.9786 22.272L18.5563 22.4035H12.0097H5.46316L5.04081 22.272C3.37484 21.7555 2.26263 20.6427 1.74641 18.9757L1.61501 18.5531V12.0028V5.45247L1.74641 5.02986C2.16877 3.66345 3.00879 2.6539 4.24302 2.03408C4.52459 1.89322 5.17221 1.68661 5.5054 1.63026C5.6368 1.60679 8.62616 1.5927 12.1505 1.59739L18.5563 1.60209L18.9786 1.73357Z" fill="#DDA74F"/>
<path d="M14.1912 5.57449C12.7317 5.79049 11.4928 6.88926 11.1455 8.29793C11.1033 8.46697 11.0704 8.65479 11.0704 8.72053C11.0704 8.94592 11.0282 8.95531 10.5542 8.83792C9.10882 8.48106 7.95438 7.80959 6.8891 6.72021C6.6216 6.44787 6.34472 6.18961 6.27433 6.15205C6.07254 6.04875 5.66895 6.06753 5.48593 6.18961C5.23721 6.35865 5.16681 6.49952 5.01664 7.07708C4.76792 8.07724 4.61775 10.0494 4.73038 10.8946C4.843 11.7163 5.19028 12.5474 5.73465 13.2893C6.06315 13.7401 6.92664 14.6088 7.37715 14.9469L7.69627 15.1863L7.44285 15.2803C6.76708 15.5338 6.19455 15.623 5.28883 15.6136C4.63183 15.6089 4.49573 15.6465 4.29394 15.9142C4.12969 16.1255 4.09215 16.4119 4.1907 16.6701C4.28925 16.9331 4.3831 17.0129 4.94625 17.3275C6.84217 18.384 9.15106 18.7268 11.3614 18.2713C15.1955 17.4872 18.0065 14.313 18.4007 10.3358L18.457 9.77234L18.9732 8.99757C19.2548 8.57027 19.527 8.1148 19.5786 7.98802C19.7241 7.60768 19.893 6.94091 19.893 6.739C19.893 6.49483 19.7382 6.19901 19.5505 6.08631C19.2783 5.91727 19.114 5.91727 18.6494 6.07692C18.4195 6.15674 17.983 6.25535 17.6874 6.29761L17.1477 6.37744L16.7441 6.12388C15.9792 5.64023 15.0735 5.44771 14.1912 5.57449ZM15.3738 7.24612C15.6131 7.31186 15.9416 7.51377 16.364 7.85185C16.5423 7.99272 16.6033 8.0115 16.8333 8.0115C16.9788 8.0115 17.2369 7.98802 17.4011 7.96454C17.5654 7.93637 17.7109 7.92228 17.7202 7.93637C17.7343 7.94576 17.5654 8.2181 17.3542 8.5374C16.899 9.21357 16.8474 9.33565 16.8427 9.75825C16.8427 9.92729 16.8004 10.3076 16.7488 10.6035C16.0683 14.5477 12.7505 17.1679 8.83664 16.8439C8.47998 16.811 8.17964 16.7781 8.17025 16.7688C8.16086 16.7594 8.34858 16.6561 8.59261 16.534C9.15575 16.2475 9.61096 15.947 9.81745 15.7169C10.1741 15.3225 10.0709 14.8154 9.56872 14.4867C9.42794 14.3928 9.14167 14.205 8.93519 14.0688C7.57425 13.1719 6.63568 12.0356 6.37288 10.9697C6.30249 10.688 6.2931 9.7113 6.34942 8.93653L6.38696 8.48106L6.67322 8.71114C7.15659 9.09148 7.68219 9.41548 8.32511 9.72538C9.44671 10.2654 10.4416 10.5377 11.6148 10.6222C11.9809 10.6504 12.0653 10.641 12.253 10.5612C12.6426 10.3875 12.7646 10.0916 12.6707 9.52817C12.5018 8.5374 13.1118 7.56542 14.1067 7.24142C14.5103 7.11464 14.9045 7.11464 15.3738 7.24612Z" fill="#DDA74F"/>
</svg>
