<svg width="24" height="24" viewBox="0 0 24 24" fill="none" xmlns="http://www.w3.org/2000/svg">
<path d="M4.28198 0.110409C1.98244 0.641924 0.317249 2.6251 0.0582202 5.15694C-0.0157882 5.87706 -0.0210745 14.067 0.0529339 14.7699C0.132229 15.49 0.280245 16.0501 0.586851 16.7188C1.25293 18.1933 2.53221 19.3135 4.0441 19.7536C4.56744 19.9022 4.60445 19.9022 6.63439 19.9308C8.13042 19.9479 8.7172 19.9708 8.78592 20.0222C8.8335 20.0622 9.46257 20.9252 10.1762 21.9482C10.8899 22.9655 11.5401 23.8457 11.6194 23.8971C11.704 23.96 11.8626 24 12.0159 24C12.2379 24 12.296 23.9714 12.4758 23.7885C12.5868 23.6685 13.2317 22.7884 13.9031 21.8282C14.5797 20.8681 15.1665 20.0565 15.2141 20.0279C15.2669 19.9936 16.1339 19.9593 17.3392 19.9365C18.9568 19.9136 19.4484 19.885 19.7444 19.8107C21.4255 19.3878 22.7206 18.2848 23.4396 16.6674C23.7198 16.0387 23.8731 15.4672 23.9471 14.7699C24.0211 14.067 24.0158 5.87706 23.9418 5.15694C23.7092 2.91086 22.3242 1.01913 20.3841 0.304726C19.5277 -0.0153255 19.7762 -0.00389481 11.9524 0.00181961C5.18066 0.00181961 4.70489 0.0132504 4.28198 0.110409ZM19.5436 1.61351C20.9444 2.02501 21.9858 3.11661 22.4246 4.62543L22.5462 5.05407V9.94058C22.5462 14.4956 22.5409 14.8499 22.451 15.1986C22.0704 16.6617 21.0977 17.7476 19.7444 18.2333C19.3903 18.3591 19.2845 18.3648 17.207 18.3991C15.1612 18.4277 15.0238 18.4391 14.7647 18.5534C14.6114 18.6163 14.3947 18.7534 14.2837 18.8449C14.1727 18.942 13.6176 19.6793 13.0573 20.4794C12.4916 21.2853 12.0211 21.9425 12 21.9425C11.9841 21.9425 11.5084 21.2853 10.9427 20.4794C10.3771 19.6793 9.82733 18.942 9.71631 18.8449C9.6053 18.7477 9.38856 18.6163 9.23526 18.5534C8.97623 18.4391 8.83879 18.4277 6.79298 18.3991C4.71546 18.3648 4.60974 18.3591 4.25555 18.2333C3.156 17.839 2.33662 17.0846 1.85028 16.0273C1.43266 15.1128 1.45381 15.4272 1.45381 9.94058V5.05407L1.57539 4.62543C2.0723 2.91086 3.36745 1.72781 4.9692 1.52207C5.06964 1.51064 8.32073 1.50492 12.185 1.50492C18.6237 1.51635 19.2422 1.52207 19.5436 1.61351Z" fill="#DDA74F"/>
<path d="M6.95159 8.44893C5.94191 8.71754 5.53486 10.1006 6.22208 10.9636C6.49697 11.3122 6.85644 11.4837 7.32164 11.4837C8.13573 11.478 8.66436 10.9236 8.71194 10.0206C8.72779 9.69484 8.71194 9.55768 8.61678 9.31764C8.34718 8.64896 7.62824 8.27175 6.95159 8.44893Z" fill="#DDA74F"/>
<path d="M11.5718 8.47179C10.874 8.75183 10.5198 9.3405 10.5886 10.1006C10.6203 10.5235 10.7683 10.8379 11.0696 11.1236C11.6035 11.6323 12.4705 11.6094 12.9938 11.0665C13.5119 10.5293 13.57 9.55768 13.1154 8.9633C12.7771 8.51751 12.037 8.28319 11.5718 8.47179Z" fill="#DDA74F"/>
<path d="M16.2291 8.48321C15.1189 8.86613 14.9286 10.575 15.9224 11.2608C16.1445 11.4208 16.2502 11.4494 16.5938 11.4723C17.1119 11.5066 17.4555 11.358 17.7674 10.9808C18.3859 10.2206 18.1691 9.02615 17.3286 8.56322C17.059 8.41463 16.5357 8.37462 16.2291 8.48321Z" fill="#DDA74F"/>
</svg>
