<svg width="24" height="24" viewBox="0 0 24 24" fill="none" xmlns="http://www.w3.org/2000/svg">
<path d="M9.92705 0.0966377C9.66778 0.213621 9.42376 0.508623 9.35259 0.793453C9.32209 0.910437 9.29667 1.43941 9.29667 1.96838V2.92459L8.87472 3.07209C8.64596 3.15347 8.23418 3.32132 7.95966 3.44847L7.46145 3.67736L6.73957 2.96528C6.34304 2.56855 5.94651 2.21252 5.85501 2.16674C5.64657 2.06502 5.18396 2.05993 4.93994 2.16165C4.73659 2.24812 2.48451 4.45047 2.24558 4.79633C2.06257 5.05573 2.0219 5.5847 2.15407 5.85427C2.19983 5.95091 2.56077 6.35272 2.9573 6.74945L3.66901 7.47169L3.44025 7.97015C3.31316 8.2448 3.14539 8.65679 3.06405 8.88567L2.91663 9.29766L1.84905 9.318C0.867896 9.33326 0.766222 9.34343 0.573042 9.44516C0.313773 9.58249 0.115509 9.81137 0.0443368 10.0606C0.00366717 10.1877 -0.00650022 10.8693 0.00366718 12.1154L0.0189183 13.977L0.171429 14.2008C0.257852 14.3178 0.420531 14.4704 0.527288 14.5314C0.720469 14.6433 0.786557 14.6484 1.82363 14.6484H2.91663L3.05897 15.0858C3.13523 15.3249 3.30807 15.7521 3.43516 16.0318L3.66901 16.5354L2.9573 17.2576C2.56077 17.6544 2.19983 18.0562 2.15407 18.1528C2.0219 18.4224 2.06257 18.9514 2.24558 19.2107C2.48451 19.5566 4.73659 21.759 4.93994 21.8454C5.18396 21.9471 5.64657 21.9421 5.85501 21.8403C5.94651 21.7946 6.34304 21.4385 6.73957 21.0418L7.46145 20.3297L7.95966 20.5586C8.23418 20.6858 8.64596 20.8536 8.87472 20.9299L9.2865 21.0621L9.30684 22.1404C9.32209 23.178 9.32717 23.2289 9.44918 23.4476C9.52035 23.5697 9.67795 23.7426 9.79487 23.8291L10.0186 23.9816L11.869 23.9969C13.0739 24.0071 13.7856 23.9918 13.9178 23.9562C14.177 23.8901 14.4058 23.6968 14.5481 23.4272C14.6498 23.234 14.66 23.1373 14.6752 22.1506L14.6905 21.0825L15.1073 20.935C15.3361 20.8536 15.7479 20.6858 16.0224 20.5586L16.5206 20.3297L17.2425 21.0418C17.639 21.4385 18.0356 21.7946 18.1271 21.8403C18.3355 21.9421 18.8032 21.9471 19.0472 21.8403C19.3116 21.7335 21.6653 19.3786 21.8127 19.0836C21.9297 18.8344 21.95 18.4326 21.8534 18.1833C21.8229 18.1019 21.462 17.695 21.0553 17.2831L20.313 16.5354L20.5418 16.0369C20.6689 15.7623 20.8367 15.3503 20.918 15.1214L21.0654 14.7094L22.133 14.6891C23.1091 14.6738 23.2158 14.6636 23.4039 14.5619C23.6581 14.4297 23.8106 14.2669 23.9123 14.0279C24.0292 13.7481 24.0292 10.259 23.9123 9.97921C23.8106 9.74016 23.6581 9.5774 23.4039 9.44516C23.2158 9.34343 23.1091 9.33326 22.133 9.318L21.0654 9.29766L20.918 8.88567C20.8367 8.65679 20.6689 8.2448 20.5418 7.97015L20.313 7.47169L21.0248 6.74945C21.4213 6.35272 21.7772 5.95599 21.8229 5.86444C21.9398 5.63556 21.9297 5.16763 21.8026 4.90823C21.6653 4.62848 19.2963 2.26847 19.0421 2.16165C18.7981 2.05993 18.3355 2.06502 18.1271 2.16674C18.0356 2.21252 17.639 2.56855 17.2425 2.96528L16.5206 3.67736L16.0224 3.44847C15.7479 3.32132 15.3361 3.15347 15.1073 3.07209L14.6905 2.92459L14.6752 1.85648C14.66 0.879919 14.6498 0.773109 14.5481 0.584917C14.4109 0.330605 14.2533 0.178019 14.0143 0.0762939C13.8567 0.0101719 13.5314 0 11.9809 0C10.2982 0 10.1151 0.0101719 9.92705 0.0966377ZM12.5604 2.83304C12.5757 3.49934 12.5858 3.5502 12.7383 3.87572C13.023 4.4759 13.4145 4.78107 14.2787 5.06081C14.5176 5.13711 14.9396 5.31513 15.2192 5.45246C16.0529 5.86444 16.5206 5.94073 17.1357 5.74746C17.5272 5.63047 17.7915 5.44737 18.2592 4.99469L18.5998 4.65392L18.9659 5.02012L19.3319 5.38634L18.9455 5.78815C18.488 6.26625 18.3253 6.52565 18.2135 6.96816C18.0711 7.52256 18.1321 7.8786 18.4931 8.64153C18.6608 8.99248 18.8794 9.52145 18.976 9.81137C19.0777 10.1064 19.2048 10.4166 19.2607 10.5031C19.4234 10.7676 19.8504 11.1338 20.1656 11.2813C20.4249 11.4034 20.5266 11.4186 21.1569 11.4339L21.8534 11.4542V12.0035V12.5529L21.1569 12.5732C20.491 12.5885 20.4401 12.5986 20.1148 12.7512C19.5098 13.036 19.215 13.4226 18.9303 14.2923C18.854 14.5314 18.6761 14.9536 18.5388 15.2333C18.1271 16.0674 18.0508 16.5354 18.244 17.1508C18.3609 17.5425 18.5439 17.8069 18.9964 18.2749L19.337 18.6157L18.971 18.9819L18.6049 19.3481L18.2033 18.9615C17.7254 18.5038 17.4662 18.341 17.0239 18.2291C16.4698 18.0867 16.1139 18.1477 15.3514 18.5088C15.0006 18.6767 14.4719 18.8954 14.1821 18.992C13.8873 19.0938 13.5771 19.2209 13.4907 19.2769C13.2264 19.4396 12.8603 19.8669 12.7129 20.1822C12.5909 20.4416 12.5757 20.5433 12.5604 21.174L12.5401 21.8709H11.991H11.442L11.4217 21.169C11.4064 20.5433 11.3912 20.4416 11.2691 20.1822C10.9743 19.5515 10.5778 19.2362 9.70845 18.9463C9.40343 18.8445 8.95098 18.6614 8.70188 18.5343C7.98508 18.163 7.48687 18.0765 6.93275 18.2291C6.51589 18.341 6.2617 18.4987 5.80925 18.9361L5.37714 19.3481L5.0162 18.9819L4.65017 18.6207L5.03653 18.2189C5.49406 17.7408 5.65674 17.4814 5.76858 17.0389C5.91093 16.4896 5.84992 16.1336 5.48898 15.3655C5.3263 15.0095 5.10262 14.4805 5.00603 14.1906C4.90435 13.9007 4.77726 13.5904 4.72134 13.504C4.55866 13.2395 4.13163 12.8733 3.81644 12.7258C3.55717 12.6037 3.4555 12.5885 2.82512 12.5732L2.12865 12.5529V11.9985V11.4441H2.72853C3.44533 11.4441 3.71985 11.3728 4.15197 11.0829C4.55358 10.8184 4.81793 10.4268 5.02636 9.78085C5.11787 9.50619 5.31613 9.02809 5.46356 8.71782C5.87026 7.86842 5.92618 7.46661 5.73808 6.85626C5.62116 6.46462 5.43814 6.20013 4.98569 5.7322L4.64508 5.39142L5.01111 5.02521L5.37714 4.659L5.77875 5.04556C6.25662 5.50332 6.51589 5.66608 6.95817 5.77798C7.51229 5.92039 7.86815 5.85936 8.6307 5.49823C8.98148 5.33039 9.51019 5.11168 9.79996 5.01504C10.0948 4.91331 10.4049 4.78616 10.4913 4.73021C10.7557 4.56745 11.1217 4.1402 11.2691 3.82486C11.3912 3.56546 11.4064 3.46373 11.4217 2.83304L11.442 2.13622H11.991H12.5401L12.5604 2.83304Z" fill="#F6F6F6"/>
<path d="M11.2539 6.81559C9.12891 7.14619 7.4767 8.63646 6.92258 10.7218C6.80566 11.1491 6.79041 11.3169 6.79041 12.0036C6.79041 12.6902 6.80566 12.858 6.92258 13.2853C7.17677 14.2415 7.61396 15.0095 8.30026 15.6962C8.98656 16.3828 9.75929 16.8202 10.7099 17.0745C11.137 17.1864 11.3098 17.2068 11.991 17.2068C12.6824 17.2068 12.84 17.1915 13.2874 17.0745C14.7921 16.6727 15.9919 15.6962 16.668 14.328C17.0544 13.5447 17.1917 12.9649 17.1967 12.0544C17.2018 11.3017 17.1561 10.9812 16.9629 10.376C16.4037 8.62629 14.9091 7.28352 13.084 6.8868C12.6468 6.79016 11.6657 6.75455 11.2539 6.81559ZM12.6163 8.97724C13.2111 9.1044 13.689 9.36888 14.1567 9.83682C14.4719 10.1522 14.6142 10.3404 14.7566 10.6404C15.1938 11.556 15.1938 12.4511 14.7566 13.3667C14.4922 13.916 13.9025 14.506 13.3535 14.7705C12.9163 14.979 12.4079 15.1062 11.991 15.1062C11.5742 15.1062 11.0658 14.979 10.6286 14.7705C10.0796 14.506 9.48985 13.916 9.2255 13.3667C8.90522 12.6953 8.8188 12.0595 8.96623 11.3779C9.21025 10.2183 10.1914 9.22647 11.3403 8.97724C11.7623 8.88569 12.1944 8.88569 12.6163 8.97724Z" fill="#F6F6F6"/>
</svg>
