<svg width="24" height="24" viewBox="0 0 24 24" fill="none" xmlns="http://www.w3.org/2000/svg">
<path d="M0.0620155 0.187014C0.0620155 0.280519 2.10853 2.96104 4.58915 6.14026C7.06977 9.28831 9.02326 12.0623 8.96124 12.2494C8.86822 12.4675 6.82171 15.1481 4.4031 18.2338L0 23.8442L2.3876 23.9377C3.72093 24 4.99225 23.9688 5.17829 23.8753C5.39535 23.813 6.97674 21.8805 8.74419 19.6052C11.3488 16.2701 12 15.5844 12.2791 15.9584C12.4651 16.2078 13.9225 18.1091 15.5349 20.1974L18.4496 24H21.2093H23.938L20.124 19.0753C18.0465 16.3948 15.938 13.6831 15.5039 13.0909L14.6667 12L17.7985 7.94805C19.5349 5.7039 21.6124 3.02338 22.4496 1.93247L24 0H21.2403H18.5116L15.2868 4.17662C13.4884 6.48312 11.938 8.32208 11.814 8.22857C11.6899 8.16623 10.1705 6.26493 8.43411 4.05195L5.30233 0H2.69767C1.24031 0 0.0620155 0.0935059 0.0620155 0.187014ZM13.1163 13.4649L12 14.9299L11.1318 13.9325C9.6124 12.187 9.5814 12.0623 10.7907 10.5039L11.907 9.07013L13.0853 10.5351L14.2326 12L13.1163 13.4649Z" fill="#DDA74F"/>
</svg>
