<svg width="24" height="24" viewBox="0 0 24 24" fill="none" xmlns="http://www.w3.org/2000/svg">
<path d="M10.846 0.07302C8.78639 0.53482 7.21139 2.01835 6.62293 4.06182C6.50754 4.46012 6.49023 4.64484 6.49023 5.52803C6.49023 6.41123 6.50754 6.59595 6.62293 6.99425C7.17677 8.91072 8.60177 10.3481 10.5056 10.9022C11.1575 11.0869 12.4787 11.1216 13.1941 10.9657C15.2191 10.5155 16.7883 9.02617 17.3768 6.99425C17.4922 6.59595 17.5095 6.41123 17.5095 5.52803C17.5095 4.64484 17.4922 4.46012 17.3768 4.06182C16.8229 2.14535 15.3979 0.713767 13.4941 0.153835C12.9345 -0.00779533 11.4229 -0.0539751 10.846 0.07302Z" fill="#DDA74F"/>
<path d="M8.42308 13.875C7.33846 14.0828 5.60192 14.839 4.45385 15.5952C2.07115 17.1711 0.513462 19.4166 0.0865385 21.8873C0.0403846 22.1759 0 22.7474 0 23.1976V24H12H24V23.1976C24 22.7474 23.9596 22.1759 23.9135 21.8873C23.4923 19.434 21.9519 17.2 19.5981 15.6299C18.5538 14.9314 16.7596 14.1406 15.7327 13.9212C15.0865 13.7885 14.1865 13.8173 13.3962 13.9963C12.4788 14.2041 11.4635 14.2098 10.7019 14.0136C10.3038 13.9154 9.99231 13.875 9.375 13.8635C8.93077 13.8577 8.50385 13.8635 8.42308 13.875Z" fill="#DDA74F"/>
</svg>
