<svg width="168" height="24" viewBox="0 0 168 24" fill="none" xmlns="http://www.w3.org/2000/svg">
<g id="Group 65">
<g id="Black">
<path id="Vector" d="M98.7339 0.0275726C98.066 0.112152 97.3937 0.446022 96.9261 0.926794C96.4853 1.3675 96.2449 1.7904 96.0801 2.38691C96.0045 2.65846 96 3.19265 96 12.0023V21.3284L96.1024 21.6845C96.2716 22.2632 96.4809 22.6149 96.935 23.0645C97.3848 23.5186 97.7365 23.7278 98.3153 23.897L98.6715 23.9994H108C118.49 23.9994 117.51 24.0305 118.281 23.6566C118.588 23.5097 118.735 23.4029 119.069 23.069C119.407 22.7351 119.51 22.5971 119.657 22.2855C120.031 21.5065 119.999 22.4903 119.999 12.0023V2.67627L119.897 2.32014C119.728 1.74143 119.518 1.38976 119.064 0.935696C118.73 0.601828 118.597 0.499441 118.285 0.348087C117.506 -0.0258465 118.512 0.00976562 108.178 0.000864029C103.12 -0.00358772 98.8719 0.00976562 98.7339 0.0275726ZM109.38 2.96562C112.194 3.3173 114.229 4.73735 115.395 7.17237C115.636 7.67095 115.983 8.6681 115.934 8.71262C115.903 8.74378 114.509 9.10881 114.434 9.10881C114.407 9.10881 114.322 8.90404 114.242 8.6503C114.073 8.11611 113.748 7.45727 113.423 6.98095C113.125 6.54469 112.479 5.89921 112.06 5.62322C111.482 5.23593 110.578 4.85309 109.892 4.70174C108.788 4.4569 107.278 4.47471 106.21 4.75071C103.164 5.52528 101.637 7.98256 101.624 12.1136C101.619 13.0974 101.673 13.6583 101.837 14.4952C102.345 17.0371 103.65 18.6708 105.716 19.343C106.797 19.6947 108.311 19.7926 109.558 19.5923C111.468 19.2807 112.946 18.1455 113.432 16.6097C113.565 16.1824 113.597 15.4746 113.503 15.0294C113.418 14.6243 113.142 14.059 112.889 13.7652C112.711 13.5604 112.216 13.1598 112.141 13.1598C112.123 13.1598 112.074 13.3423 112.034 13.5604C111.842 14.6154 111.348 15.5324 110.676 16.0933C109.184 17.3309 106.691 17.2552 105.373 15.9242C104.683 15.2253 104.398 14.2726 104.598 13.3022C104.892 11.8688 106.17 10.934 108.084 10.7514C108.601 10.7025 109.678 10.7247 110.195 10.796C110.337 10.8138 110.462 10.8138 110.475 10.796C110.506 10.7381 110.364 10.2262 110.239 9.96797C110.003 9.46494 109.496 9.06429 108.912 8.90849C108.565 8.81946 107.746 8.81946 107.399 8.90849C107.002 9.01533 106.628 9.23345 106.326 9.54061C106.085 9.7899 106.045 9.81216 105.969 9.75874C105.925 9.72758 105.631 9.52726 105.315 9.31358C104.66 8.86397 104.674 8.93075 105.141 8.43217C105.658 7.88462 106.277 7.51514 106.998 7.32372C107.55 7.17682 108.512 7.15901 109.099 7.27921C110.449 7.55966 111.37 8.34314 111.833 9.60293C111.989 10.0258 112.118 10.5912 112.163 11.0274L112.194 11.3257L112.564 11.5082C113.049 11.7486 113.552 12.127 113.971 12.5677C115.244 13.9076 115.556 15.8797 114.768 17.6648C114.273 18.7955 113.16 19.9262 111.936 20.5405C110.043 21.4887 107.283 21.6133 105.065 20.8521C104.041 20.5004 103.213 19.9885 102.456 19.2362C101.383 18.1589 100.64 16.6988 100.257 14.8914C99.8693 13.0663 99.9138 10.7425 100.368 8.88623C101.174 5.61432 103.28 3.55768 106.361 3.03684C107.296 2.87659 108.44 2.84988 109.38 2.96562Z" fill="#DDA74F"/>
<path id="Vector_2" d="M108.022 12.4031C107.555 12.4565 107.118 12.599 106.802 12.8037C106.361 13.0886 106.174 13.4181 106.17 13.8988C106.165 14.6066 106.691 15.1141 107.613 15.2833C108.49 15.4391 109.313 15.2031 109.826 14.6467C110.173 14.2683 110.48 13.4403 110.502 12.8126L110.516 12.5144L110.182 12.461C109.728 12.3897 108.459 12.3541 108.022 12.4031Z" fill="#DDA74F"/>
</g>
<g id="Black_2">
<path id="Vector_3" d="M7.00791 0.044632C4.99998 0.152508 3.47057 0.696581 2.35871 1.68623C0.871523 3.01358 0.219414 4.55199 0.0786712 7.07537C-0.0479974 9.35954 -0.0151574 16.4419 0.130277 17.7223C0.327317 19.514 0.937203 20.9117 1.96932 21.953C2.80439 22.7925 3.61132 23.2662 4.79356 23.6086C6.06024 23.9745 6.99853 24.0214 12.7221 23.9932C17.3197 23.9745 17.6903 23.9604 18.6333 23.7681C21.4012 23.2099 23.2778 21.3198 23.8126 18.5572C24.0003 17.591 24.0096 17.0797 23.9956 11.5546L23.9768 6.25457L23.8689 5.66828C23.5874 4.13456 23.0338 3.0042 22.1143 2.06614C20.8148 0.738794 19.3651 0.180649 16.874 0.0399418C15.8653 -0.0163422 8.04941 -0.011652 7.00791 0.044632ZM17.2962 2.29128C18.6943 2.4273 19.6607 2.79783 20.3785 3.47792C20.9133 3.97978 21.2558 4.53792 21.4904 5.28837C21.6686 5.8512 21.7484 6.37182 21.8 7.33333C21.861 8.42617 21.861 15.6211 21.8 16.6951C21.6921 18.6416 21.3355 19.6031 20.4019 20.499C19.6607 21.2025 18.8069 21.5637 17.5073 21.7091C16.3439 21.8404 7.6694 21.8404 6.5763 21.7091C5.66616 21.6012 4.91553 21.376 4.36664 21.0477C4.05231 20.8648 3.43304 20.2926 3.20316 19.9783C2.83254 19.4765 2.54167 18.7167 2.40562 17.9099C2.27895 17.1501 2.23673 15.6304 2.23673 11.9767C2.23673 8.38396 2.27895 6.90652 2.40093 6.16076C2.60735 4.87562 3.09057 3.9704 3.91157 3.30907C4.34318 2.96199 4.65751 2.79314 5.23924 2.60084C5.85382 2.39915 6.54346 2.29597 7.64125 2.24438C8.88918 2.18809 16.6347 2.22561 17.2962 2.29128Z" fill="#DDA74F"/>
<path id="Vector_4" d="M18.0375 4.18156C17.3338 4.38324 16.9069 5.0821 17.0242 5.83723C17.0758 6.16555 17.1884 6.39069 17.423 6.62051C17.7091 6.91131 17.9156 6.99573 18.3894 7.01918C18.7788 7.03795 18.8163 7.03326 19.1025 6.89255C19.4262 6.73308 19.6279 6.5267 19.7968 6.18431C19.9376 5.88883 19.9423 5.31192 19.8015 5.00705C19.4919 4.34103 18.7366 3.98926 18.0375 4.18156Z" fill="#DDA74F"/>
<path id="Vector_5" d="M11.2256 5.86056C10.2827 5.9872 9.34906 6.34835 8.52337 6.9018C8.08237 7.19729 7.20977 8.06968 6.91421 8.51526C6.44975 9.2188 6.0979 10.0724 5.93839 10.8979C5.83987 11.3904 5.85394 12.7178 5.96185 13.2102C6.50136 15.7148 8.32163 17.5394 10.8315 18.0834C11.3758 18.2007 12.7081 18.2007 13.2523 18.0834C14.519 17.8067 15.4761 17.2908 16.3862 16.3856C17.3104 15.471 17.8499 14.4719 18.1267 13.1727C18.244 12.6193 18.244 11.381 18.1267 10.8276C17.5919 8.30889 15.7341 6.44216 13.2383 5.92622C12.7926 5.83242 11.6807 5.7949 11.2256 5.86056ZM13.0084 8.15411C14.4205 8.51526 15.5089 9.60341 15.8936 11.0386C15.9734 11.3294 15.9968 11.5499 15.9968 12.0001C15.9968 12.6755 15.8983 13.1117 15.6309 13.6746C14.777 15.4756 12.7128 16.3949 10.8691 15.7946C9.51795 15.3584 8.53744 14.3031 8.16213 12.8913C8.04953 12.4692 8.05422 11.5358 8.16682 11.0855C8.64534 9.22349 10.3436 7.94774 12.2108 8.04154C12.4501 8.05092 12.8066 8.10252 13.0084 8.15411Z" fill="#DDA74F"/>
</g>
<g id="Black_3">
<path id="Vector_6" d="M149.346 0.0337677C146.802 0.442284 144.798 2.24538 144.184 4.67769C143.991 5.43838 143.991 5.54638 144.005 12.2376C144.024 18.2432 144.029 18.7175 144.109 19.0462C144.714 21.5912 146.516 23.3802 149.017 23.9155C149.393 23.9953 149.81 24 156.01 24C162.209 24 162.627 23.9953 163.002 23.9155C165.517 23.3755 167.376 21.516 167.916 18.9992C167.995 18.6236 168 18.2057 168 12.0028C168 5.79994 167.995 5.38203 167.916 5.00639C167.437 2.7619 165.884 1.01045 163.753 0.296721C162.843 -0.00849342 163.359 0.0102901 156.151 0.000898361C152.523 -0.00379753 149.487 0.0102901 149.346 0.0337677ZM162.979 1.73357C163.823 1.99652 164.391 2.32521 164.987 2.88868C165.578 3.45684 166.001 4.15648 166.273 5.02986L166.404 5.45247V12.0028V18.5531L166.273 18.9757C166.01 19.8209 165.682 20.3891 165.119 20.9854C164.551 21.5771 163.852 21.9997 162.979 22.272L162.556 22.4035H156.01H149.463L149.041 22.272C147.375 21.7555 146.263 20.6427 145.746 18.9757L145.615 18.5531V12.0028V5.45247L145.746 5.02986C146.169 3.66345 147.009 2.6539 148.243 2.03408C148.525 1.89322 149.172 1.68661 149.505 1.63026C149.637 1.60679 152.626 1.5927 156.151 1.59739L162.556 1.60209L162.979 1.73357Z" fill="#DDA74F"/>
<path id="Vector_7" d="M158.191 5.57449C156.732 5.79049 155.493 6.88926 155.146 8.29793C155.103 8.46697 155.07 8.65479 155.07 8.72053C155.07 8.94592 155.028 8.95531 154.554 8.83792C153.109 8.48106 151.954 7.80959 150.889 6.72021C150.622 6.44787 150.345 6.18961 150.274 6.15205C150.073 6.04875 149.669 6.06753 149.486 6.18961C149.237 6.35865 149.167 6.49952 149.017 7.07708C148.768 8.07724 148.618 10.0494 148.73 10.8946C148.843 11.7163 149.19 12.5474 149.735 13.2893C150.063 13.7401 150.927 14.6088 151.377 14.9469L151.696 15.1863L151.443 15.2803C150.767 15.5338 150.195 15.623 149.289 15.6136C148.632 15.6089 148.496 15.6465 148.294 15.9142C148.13 16.1255 148.092 16.4119 148.191 16.6701C148.289 16.9331 148.383 17.0129 148.946 17.3275C150.842 18.384 153.151 18.7268 155.361 18.2713C159.195 17.4872 162.007 14.313 162.401 10.3358L162.457 9.77234L162.973 8.99757C163.255 8.57027 163.527 8.1148 163.579 7.98802C163.724 7.60768 163.893 6.94091 163.893 6.739C163.893 6.49483 163.738 6.19901 163.55 6.08631C163.278 5.91727 163.114 5.91727 162.649 6.07692C162.419 6.15674 161.983 6.25535 161.687 6.29761L161.148 6.37744L160.744 6.12388C159.979 5.64023 159.073 5.44771 158.191 5.57449ZM159.374 7.24612C159.613 7.31186 159.942 7.51377 160.364 7.85185C160.542 7.99272 160.603 8.0115 160.833 8.0115C160.979 8.0115 161.237 7.98802 161.401 7.96454C161.565 7.93637 161.711 7.92228 161.72 7.93637C161.734 7.94576 161.565 8.2181 161.354 8.5374C160.899 9.21357 160.847 9.33565 160.843 9.75825C160.843 9.92729 160.8 10.3076 160.749 10.6035C160.068 14.5477 156.75 17.1679 152.837 16.8439C152.48 16.811 152.18 16.7781 152.17 16.7688C152.161 16.7594 152.349 16.6561 152.593 16.534C153.156 16.2475 153.611 15.947 153.817 15.7169C154.174 15.3225 154.071 14.8154 153.569 14.4867C153.428 14.3928 153.142 14.205 152.935 14.0688C151.574 13.1719 150.636 12.0356 150.373 10.9697C150.302 10.688 150.293 9.7113 150.349 8.93653L150.387 8.48106L150.673 8.71114C151.157 9.09148 151.682 9.41548 152.325 9.72538C153.447 10.2654 154.442 10.5377 155.615 10.6222C155.981 10.6504 156.065 10.641 156.253 10.5612C156.643 10.3875 156.765 10.0916 156.671 9.52817C156.502 8.5374 157.112 7.56542 158.107 7.24142C158.51 7.11464 158.905 7.11464 159.374 7.24612Z" fill="#DDA74F"/>
</g>
<g id="Black_4">
<path id="Vector_8" d="M59.6836 4.94212C53.5791 7.66212 48.5161 9.92616 48.4317 9.97857C48.3472 10.0257 48.2158 10.1777 48.1361 10.314C48.0282 10.5079 48 10.6127 48 10.859C48 11.0267 48.0282 11.2416 48.0657 11.3359C48.2252 11.75 48.2628 11.7709 51.43 13.1231L54.4002 14.3966L55.2354 17.9289C56.1504 21.8019 56.1222 21.7076 56.5398 21.9434C56.7932 22.0902 57.1029 22.0954 57.361 21.9644C57.4642 21.912 58.2713 21.2883 59.1581 20.5756L60.7675 19.2811L63.8034 21.5818C65.4738 22.8448 66.9003 23.9035 66.9707 23.9402C67.163 24.0345 67.5619 24.0136 67.7824 23.9035C67.9983 23.7934 68.1859 23.5471 68.261 23.2694C68.2892 23.1698 69.1479 18.1805 70.1708 12.185C72.179 0.414028 72.118 0.838535 71.8881 0.461195C71.691 0.146744 71.4893 0.0314465 71.1139 0.0157223L70.7807 0L59.6836 4.94212ZM66.5812 4.37086C66.4639 4.50189 64.2257 6.90219 61.6075 9.71129C58.3229 13.2384 56.812 14.8945 56.7416 15.0465C56.6759 15.1827 56.629 15.2404 56.6149 15.1932C56.6008 15.1513 56.4882 14.6796 56.3615 14.1346C56.0941 13.013 56.0002 12.8034 55.6577 12.6147C55.5357 12.5466 54.5832 12.1273 53.5462 11.6818C52.1526 11.0896 51.674 10.8643 51.7397 10.8381C51.8617 10.7752 66.7407 4.15075 66.7689 4.14551C66.783 4.14027 66.6985 4.24508 66.5812 4.37086ZM68.1015 12.6566C67.3132 17.2633 66.661 21.0472 66.6516 21.0577C66.6234 21.0944 59.1675 15.4395 59.1816 15.3924C59.191 15.3504 69.5092 4.25033 69.5232 4.26605C69.5279 4.27129 68.8851 8.0447 68.1015 12.6566ZM58.0507 17.2267C58.9423 17.9027 59.0173 17.9709 58.9423 18.039C58.8156 18.17 57.6613 19.0819 57.5956 19.1081C57.5581 19.1291 57.5064 18.9981 57.4408 18.6993C57.3844 18.4583 57.2343 17.8189 57.1076 17.2738C56.8918 16.3672 56.8824 16.2938 56.9762 16.3881C57.0325 16.4458 57.5158 16.8231 58.0507 17.2267Z" fill="#DDA74F"/>
</g>
</g>
</svg>
