<svg width="24" height="24" viewBox="0 0 24 24" fill="none" xmlns="http://www.w3.org/2000/svg">
<path d="M2.6463 0.096262C1.69499 0.345234 0.81839 1.05232 0.385072 1.92372C-0.0333049 2.75031 -0.00840153 2.28224 0.00654049 9.53233L0.0214825 15.9558L0.170903 16.3542C0.549434 17.3501 1.14213 17.9974 2.09344 18.4406C2.59151 18.6746 3.09456 18.7692 3.8566 18.7692H4.47918V21.0946C4.47918 23.6939 4.4742 23.6541 4.82285 23.8831C5.01212 24.0126 5.40061 24.0375 5.58987 23.9429C5.64964 23.913 7.23848 22.7329 9.11619 21.3286L12.5329 18.7692H16.6519C21.2591 18.7692 21.2093 18.7742 21.9364 18.4256C22.8728 17.9825 23.4755 17.3152 23.844 16.3193L23.9785 15.9558L23.9935 9.53233C24.0084 2.28224 24.0333 2.75031 23.6149 1.92372C23.1766 1.04236 22.3 0.340256 21.3338 0.096262C20.9602 -0.00332642 20.7411 -0.00332642 11.9801 0.00165176C3.32367 0.00165176 2.99494 0.00663185 2.6463 0.096262ZM21.274 1.72454C21.7123 1.9287 22.0709 2.28722 22.2751 2.72541L22.4345 3.05904L22.4494 9.27837C22.4594 14.955 22.4544 15.5226 22.3797 15.7517C22.1406 16.4787 21.5529 17.0164 20.8258 17.1708C20.6415 17.2106 19.2718 17.2256 16.3282 17.2256C12.8318 17.2256 12.0697 17.2355 11.9353 17.2953C11.8456 17.3301 10.4859 18.331 8.91198 19.5111L6.0481 21.6623L6.02319 19.7053C5.99331 17.5044 5.99829 17.5144 5.62474 17.3252C5.45042 17.2355 5.33088 17.2256 4.43436 17.2256C3.88648 17.2256 3.31869 17.2007 3.17425 17.1708C2.56661 17.0413 2.01873 16.6131 1.73483 16.0405L1.56549 15.7068V9.38294V3.05904L1.72487 2.72541C1.97889 2.18763 2.43213 1.79426 3.00989 1.61002C3.16927 1.56022 5.01212 1.55026 12.0747 1.55524L20.9403 1.5652L21.274 1.72454Z" fill="#DDA74F"/>
<path d="M4.88731 4.56215C4.35936 4.82114 4.34939 5.65291 4.87735 5.92187C5.07159 6.02148 5.15626 6.02148 11.9997 6.02148C18.8432 6.02148 18.9278 6.02148 19.1221 5.92187C19.655 5.65291 19.6401 4.81118 19.1021 4.55717C18.9477 4.48246 18.2953 4.47748 11.9897 4.47748C5.69916 4.47748 5.03673 4.48744 4.88731 4.56215Z" fill="#DDA74F"/>
<path d="M4.97767 8.26713C4.39991 8.50122 4.31026 9.29813 4.82326 9.64179L4.99261 9.75635H12.0004H19.0082L19.1776 9.64179C19.6408 9.33299 19.6308 8.69048 19.1576 8.34184L19.0182 8.23724L12.0602 8.22728C7.50287 8.2223 5.05736 8.23724 4.97767 8.26713Z" fill="#DDA74F"/>
<path d="M4.97767 12.2671C4.39991 12.5012 4.31026 13.2981 4.82326 13.6418L4.99261 13.7563H12.0004H19.0082L19.1776 13.6418C19.6408 13.333 19.6308 12.6905 19.1576 12.3418L19.0182 12.2372L12.0602 12.2273C7.50287 12.2223 5.05736 12.2372 4.97767 12.2671Z" fill="#DDA74F"/>
</svg>
