<svg width="24" height="24" viewBox="0 0 24 24" fill="none" xmlns="http://www.w3.org/2000/svg">
<path d="M2.64792 2.55808C2.81468 2.35603 3.07962 2.22778 3.34033 2.17061C3.60194 2.11325 3.89692 2.11915 4.13511 2.22816L4.13516 2.22804L4.14153 2.23124C4.2383 2.27976 5.98666 3.18559 8.03263 4.25169C10.038 5.29665 13.6891 7.19627 16.2377 8.52226L16.3948 8.60399L16.3949 8.60402C17.9725 9.42553 19.15 10.0451 19.9498 10.4749C20.3496 10.6897 20.6561 10.8577 20.8714 10.9801C20.9789 11.0412 21.0651 11.0917 21.1293 11.1314C21.1869 11.167 21.2436 11.2039 21.2773 11.2355M2.64792 2.55808C2.64763 2.55844 2.64733 2.5588 2.64704 2.55916L2.80149 2.68621M2.64792 2.55808C2.64819 2.55776 2.64846 2.55744 2.64873 2.55712L2.80149 2.68621M2.64792 2.55808C2.58398 2.63382 2.5239 2.71314 2.47801 2.82119C2.43271 2.92785 2.40614 3.05062 2.38955 3.21017C2.35706 3.52275 2.35888 4.0275 2.36937 4.9311C2.36937 4.93119 2.36937 4.93128 2.36937 4.93137L2.38519 6.64517L2.38565 6.69521L2.40962 6.73913L2.58373 7.05818L2.58434 7.05929C2.70462 7.27642 2.873 7.48876 3.05607 7.63257C3.08797 7.65862 3.13722 7.68958 3.18879 7.72043C3.24654 7.75498 3.32153 7.79772 3.41135 7.8475C3.59122 7.94718 3.83514 8.07761 4.12916 8.23176C4.71745 8.5402 5.5099 8.9455 6.39939 9.39337C7.24031 9.81688 8.0308 10.2212 8.62656 10.5319C8.92455 10.6874 9.17316 10.819 9.35475 10.9179C9.44566 10.9673 9.51884 11.0081 9.57266 11.0391C9.59962 11.0547 9.62077 11.0673 9.63641 11.0771C9.64931 11.0851 9.65546 11.0893 9.65722 11.0906C9.65785 11.091 9.65792 11.091 9.65753 11.0907L9.65872 11.0917C10.2416 11.5449 10.2416 12.456 9.65872 12.9092L9.65753 12.9101C9.65792 12.9098 9.65785 12.9099 9.65722 12.9103C9.65546 12.9115 9.64931 12.9158 9.63641 12.9238C9.62077 12.9335 9.59962 12.9462 9.57266 12.9617C9.51884 12.9928 9.44566 13.0335 9.35475 13.083C9.17316 13.1818 8.92455 13.3135 8.62656 13.4689C8.0308 13.7797 7.24031 14.184 6.39939 14.6075C5.5099 15.0554 4.71745 15.4607 4.12916 15.7691C3.83514 15.9233 3.59122 16.0537 3.41135 16.1534C3.32153 16.2032 3.24654 16.2459 3.18879 16.2804C3.13722 16.3113 3.08796 16.3423 3.05607 16.3683C2.87299 16.5121 2.70462 16.7245 2.58434 16.9416L2.58372 16.9427L2.58373 16.9427L2.40962 17.2617L2.38518 17.3065V17.3575V19.1671C2.38518 20.0352 2.38642 20.4961 2.40132 20.7622C2.4088 20.8956 2.42019 20.9917 2.44037 21.0708C2.46206 21.1557 2.49192 21.2128 2.52209 21.2658L2.52339 21.2681L2.52341 21.2681C2.6761 21.5288 2.95135 21.7112 3.23665 21.8022C3.52178 21.8932 3.85141 21.9037 4.12525 21.7772L4.12715 21.7763L4.12714 21.7763C4.23181 21.7265 5.98924 20.8139 8.03263 19.7492C8.66577 19.4193 9.46303 19.0041 10.3379 18.5486C12.2912 17.5314 14.6313 16.3129 16.3951 15.392C17.672 14.7276 18.8503 14.1095 19.7194 13.6485C20.1538 13.4181 20.5115 13.2266 20.7658 13.0881C20.8928 13.019 20.9948 12.9626 21.068 12.921C21.1044 12.9003 21.1348 12.8826 21.158 12.8685L21.1592 12.8678C21.1738 12.859 21.2009 12.8425 21.2218 12.8249C21.4767 12.6138 21.6192 12.334 21.6292 12.0406C21.6393 11.7467 21.5158 11.4593 21.2773 11.2355M2.80149 2.68621C3.06001 2.37193 3.67729 2.23859 4.05188 2.41002C4.14685 2.45764 5.89316 3.3624 7.94021 4.42906C9.94869 5.47563 13.6079 7.37944 16.1569 8.70568L16.3025 8.78141M2.80149 2.68621L16.3025 8.78141M21.2773 11.2355L21.1405 11.3814M21.2773 11.2355C21.2773 11.2355 21.2773 11.2356 21.2773 11.2356L21.1405 11.3814M21.1405 11.3814C21.0086 11.2576 19.4575 10.4243 16.3025 8.78141M21.1405 11.3814C21.5414 11.7576 21.5256 12.3147 21.093 12.6719L16.3025 8.78141M6.49674 11.8454L6.49668 11.8454L6.49674 11.8454ZM1.14969 15.3167C0.811206 15.6851 0.518575 16.1844 0.336742 16.7086C0.336722 16.7087 0.336702 16.7087 0.336682 16.7088L0.2 17.1053V19.1671C0.2 20.1019 0.202673 20.6295 0.215671 20.9579C0.228539 21.2831 0.251127 21.3985 0.286232 21.5133L0.28624 21.5134C0.617147 22.5966 1.5438 23.4345 2.74087 23.7102L2.74087 23.7102L2.74172 23.7104C3.47323 23.8823 4.47209 23.7983 5.07228 23.5323C5.0727 23.5321 5.07386 23.5316 5.07599 23.5306L5.08858 23.5244L5.1321 23.5025C5.16874 23.484 5.21969 23.458 5.28435 23.4248C5.4136 23.3586 5.59676 23.2642 5.82793 23.1448C6.29023 22.9061 6.94399 22.5675 7.74126 22.1538C9.33578 21.3265 11.5041 20.1992 13.8623 18.9706L13.8625 18.9706L22.413 14.5253L22.8161 14.1615L22.8166 14.161C23.5036 13.5454 23.8 12.8848 23.8 12.0004C23.8 11.1161 23.5036 10.4555 22.8166 9.83988L22.8161 9.8394C22.439 9.49904 22.3314 9.43638 20.0354 8.23988C18.7156 7.55853 14.8802 5.5634 11.5146 3.80646C8.14947 2.05455 5.27896 0.569403 5.12336 0.496334C4.48134 0.202379 3.47255 0.11409 2.7209 0.29038C1.78431 0.511887 0.963774 1.1173 0.544991 1.8818C0.366552 2.21092 0.288889 2.36271 0.246689 2.71087C0.201717 3.08191 0.2 3.65996 0.2 4.83382V6.89554L0.336682 7.29207C0.336716 7.29217 0.33675 7.29227 0.336784 7.29237C0.51862 7.81651 0.811232 8.31581 1.1497 8.68419L1.15036 8.68491C1.28397 8.83178 1.37899 8.93435 1.50189 9.03753C1.62446 9.14042 1.77961 9.2478 2.03225 9.39487C2.54176 9.69146 3.42056 10.1342 5.17037 11.0122L5.17122 11.0126C5.59359 11.227 5.97958 11.4251 6.26029 11.5721C6.40044 11.6455 6.51542 11.7067 6.59585 11.7511C6.63571 11.7731 6.66911 11.792 6.69342 11.8068C6.70499 11.8138 6.71807 11.822 6.72968 11.8303C6.73479 11.834 6.74502 11.8415 6.75582 11.8516C6.76086 11.8563 6.77152 11.8666 6.78239 11.8815L6.78273 11.882C6.78908 11.8907 6.82124 11.9347 6.82124 12.0004C6.82124 12.0662 6.78908 12.1102 6.78273 12.1189L6.78239 12.1193C6.77152 12.1343 6.76086 12.1446 6.75582 12.1493C6.74502 12.1594 6.73479 12.1669 6.72968 12.1705C6.71807 12.1789 6.70499 12.1871 6.69342 12.1941C6.66911 12.2088 6.63571 12.2278 6.59585 12.2498C6.51542 12.2942 6.40044 12.3554 6.26029 12.4288C5.97958 12.5758 5.59359 12.7739 5.17122 12.9883L5.17037 12.9887C3.42056 13.8667 2.54176 14.3094 2.03225 14.606C1.77961 14.7531 1.62446 14.8605 1.50189 14.9633C1.37899 15.0665 1.28397 15.1691 1.15036 15.316L1.14969 15.3167Z" fill="#DDA74F" stroke="#222222" stroke-width="0.4"/>
</svg>
