<svg width="20" height="24" viewBox="0 0 20 24" fill="none" xmlns="http://www.w3.org/2000/svg">
<path d="M1.44849 0.09375C0.788399 0.31406 0.315498 0.782806 0.0790471 1.43436C0.00515634 1.63592 0.00023029 2.5406 0.00023029 11.7374C0.00023029 22.8279 -0.0194739 22.0217 0.305645 22.6404C0.507614 23.0201 1.00514 23.5029 1.40416 23.7045C2.03469 24.0185 1.38938 23.9998 11.0247 23.9998H19.7389L19.8719 23.8779L20 23.7514V13.6077C20 4.48121 19.9901 3.45466 19.9212 3.35153C19.8276 3.2156 19.6158 3.1406 19.3054 3.1406H19.069L19.0542 1.6828L19.0394 0.224998L18.9015 0.112499L18.7636 0L10.2316 0.00468826C2.12828 0.00468826 1.68494 0.00937653 1.44849 0.09375ZM18.0788 1.12499V1.31249H10.7439C6.70951 1.31249 3.34502 1.32655 3.25635 1.34061C3.02483 1.38749 2.85734 1.5703 2.85734 1.79061C2.85734 2.01561 2.96571 2.17967 3.16276 2.24529C3.27113 2.28279 5.56174 2.29686 10.6947 2.29686H18.0788V2.71873V3.1406H10.0395C4.4386 3.1406 1.93617 3.12654 1.80317 3.08904C1.38938 2.98122 0.985441 2.46092 0.985441 2.03905C0.985441 1.64061 1.29578 1.19999 1.69479 1.02655C1.88691 0.942181 2.21695 0.937492 9.99026 0.937492H18.0788V1.12499ZM1.15785 3.85778C1.41893 4.02653 1.7342 4.07809 2.52237 4.07809H3.30069V13.5702V23.0623H2.89182C2.66522 23.0623 2.36966 23.0295 2.24158 22.992C1.69479 22.8373 1.20219 22.3545 1.05933 21.8389C0.995293 21.6232 0.985441 20.2967 0.985441 12.689C0.985441 7.79993 1.00022 3.79684 1.02485 3.79684C1.04455 3.79684 1.10367 3.82497 1.15785 3.85778ZM19.0148 13.5702V23.0623H11.675H4.33516V13.5702V4.07809H11.675H19.0148V13.5702Z" fill="#F6F6F6"/>
</svg>
